<?xml version="1.0" encoding="utf-8"?>
<!-- Generator: Adobe Illustrator 24.0.1, SVG Export Plug-In . SVG Version: 6.00 Build 0)  -->
<svg version="1.1" xmlns="http://www.w3.org/2000/svg" xmlns:xlink="http://www.w3.org/1999/xlink" x="0px" y="0px"
	 viewBox="0 0 675.9 740.6" style="enable-background:new 0 0 675.9 740.6;" xml:space="preserve">
<style type="text/css">
	.st0{fill:none;stroke:#878787;stroke-width:0.25;stroke-miterlimit:10;}
	.st1{fill:url(#SVGID_1_);}
	.st2{fill:#FFFFFF;}
	.st3{fill:#606060;}
	.st4{fill:none;stroke:#FFFFFF;stroke-miterlimit:10;}
	.st5{display:none;fill:#E81818;}
	.st6{display:none;}
	.st7{display:inline;}
	.st8{fill:none;stroke:#FFFFFF;stroke-width:0.25;stroke-miterlimit:10;}
	.st9{fill:none;stroke:#F40B0B;stroke-width:0.25;stroke-miterlimit:10;}
	.st10{display:inline;fill:none;stroke:#878787;stroke-width:0.25;stroke-miterlimit:10;}
	.st11{display:inline;fill:none;stroke:#C6C6C6;stroke-width:0.25;stroke-miterlimit:10;}
	.st12{display:inline;fill:none;stroke:#FFFFFF;stroke-width:0.25;stroke-miterlimit:10;}
	.st13{display:inline;fill:none;stroke:#635555;stroke-width:0.25;stroke-miterlimit:10;}
</style>
<g id="BGS">
</g>
<g id="FOOTER">
	<path class="st0" d="M-689.1,1174.2"/>
</g>
<g id="LOGO_BAR">
</g>
<g id="About_us">
</g>
<g id="Services">
	<linearGradient id="SVGID_1_" gradientUnits="userSpaceOnUse" x1="-690.3171" y1="517.6501" x2="-690.3171" y2="517.6501">
		<stop  offset="0.199" style="stop-color:#D01818;stop-opacity:0.99"/>
		<stop  offset="0.5905" style="stop-color:#E81818"/>
	</linearGradient>
	<path class="st1" d="M-690.3,517.7"/>
	<path class="st0" d="M675.9,1174.2"/>
	<g>
		<g>
			<polygon class="st2" points="6.8,741.5 258.4,489.8 258.4,504.9 21.8,741.5 			"/>
			<polygon class="st2" points="222.4,482.7 316.5,576.8 316.5,561.8 222.4,467.6 			"/>
			<polygon class="st2" points="222.4,482.7 222.4,207.5 233,196.9 233,493.2 			"/>
			<polygon class="st2" points="177.6,431.3 608.9,-0.1 624,-0.1 177.6,446.3 			"/>
			<polygon class="st2" points="247.8,493.4 247.8,288.3 258.4,277.7 258.4,504 			"/>
			<path class="st2" d="M227.7,209.5c-16,0-29.1-13-29.1-29.1s13-29.1,29.1-29.1s29.1,13,29.1,29.1S243.7,209.5,227.7,209.5z
				 M227.7,163.2c-9.5,0-17.2,7.7-17.2,17.2s7.7,17.2,17.2,17.2s17.2-7.7,17.2-17.2S237.2,163.2,227.7,163.2z"/>
			<path class="st2" d="M163.7,474.6c-13.6,0-24.7-11.1-24.7-24.7c0-13.6,11.1-24.7,24.7-24.7s24.7,11.1,24.7,24.7
				C188.4,463.6,177.3,474.6,163.7,474.6z M163.7,437.1c-7.1,0-12.8,5.8-12.8,12.8s5.8,12.8,12.8,12.8s12.8-5.8,12.8-12.8
				S170.8,437.1,163.7,437.1z"/>
		</g>
		<path class="st3" d="M695.9,646.9"/>
		<path class="st3" d="M676.2,517.7"/>
		<g>
			<circle class="st4" cx="177.6" cy="358" r="7.7"/>
			<line class="st4" x1="183.4" y1="352.1" x2="536" y2="-0.4"/>
		</g>
		<g>
			<circle class="st4" cx="335.1" cy="388.6" r="7.7"/>
			<line class="st4" x1="285.2" y1="338.7" x2="330" y2="383.4"/>
		</g>
		<g>
			<line class="st4" x1="213.7" y1="548.7" x2="240.5" y2="575.5"/>
			<circle class="st4" cx="187" cy="628.6" r="3.9"/>
			<polyline class="st4" points="189.4,626.2 541.9,273.7 626.7,273.7 			"/>
			<circle class="st4" cx="630.6" cy="273.7" r="3.9"/>
		</g>
	</g>
</g>
<g id="Work">
</g>
<g id="Homepage">
	<rect x="-3462.6" y="522" class="st5" width="1366" height="320"/>
</g>
<g id="HEADER_GFX">
</g>
<g id="GUIDES" class="st6">
	<g class="st7">
		<g>
			<line class="st8" x1="-487.1" y1="741.5" x2="-487.1" y2="0"/>
			<line class="st0" x1="-434.6" y1="0" x2="-434.6" y2="741.5"/>
			<line class="st0" x1="-404.6" y1="741.5" x2="-404.6" y2="0"/>
			<line class="st0" x1="-352.1" y1="0" x2="-352.1" y2="741.5"/>
			<line class="st0" x1="-322.1" y1="741.5" x2="-322.1" y2="0"/>
			<line class="st0" x1="-269.6" y1="0" x2="-269.6" y2="741.5"/>
			<line class="st0" x1="-239.6" y1="741.5" x2="-239.6" y2="0"/>
			<line class="st0" x1="-187.1" y1="0" x2="-187.1" y2="741.5"/>
			<line class="st0" x1="-157.1" y1="741.5" x2="-157.1" y2="0"/>
			<line class="st0" x1="-104.6" y1="0" x2="-104.6" y2="741.5"/>
			<line class="st0" x1="-74.6" y1="741.5" x2="-74.6" y2="0"/>
			<line class="st0" x1="-22.1" y1="0" x2="-22.1" y2="741.5"/>
			<line class="st0" x1="7.9" y1="741.5" x2="7.9" y2="0"/>
			<line class="st0" x1="60.4" y1="0" x2="60.4" y2="741.5"/>
			<line class="st0" x1="90.4" y1="741.5" x2="90.4" y2="0"/>
			<line class="st0" x1="142.9" y1="0" x2="142.9" y2="741.5"/>
			<line class="st0" x1="172.9" y1="741.5" x2="172.9" y2="0"/>
			<line class="st0" x1="225.4" y1="0" x2="225.4" y2="741.5"/>
			<line class="st0" x1="255.4" y1="741.5" x2="255.4" y2="0"/>
			<line class="st0" x1="307.9" y1="0" x2="307.9" y2="741.5"/>
			<line class="st0" x1="337.9" y1="741.5" x2="337.9" y2="0"/>
			<line class="st0" x1="390.4" y1="0" x2="390.4" y2="741.5"/>
			<line class="st0" x1="420.4" y1="741.5" x2="420.4" y2="0"/>
			<line class="st8" x1="472.9" y1="0" x2="472.9" y2="741.5"/>
		</g>
		<line class="st9" x1="-7.1" y1="0" x2="-7.1" y2="741.5"/>
	</g>
	<path class="st10" d="M674.9,420"/>
	<path class="st10" d="M-690.1,420"/>
	<path class="st10" d="M674.9,413.5"/>
	<path class="st10" d="M-690.1,413.5"/>
	<path class="st10" d="M674.9,234"/>
	<path class="st10" d="M-690.1,234"/>
	<path class="st10" d="M674.9,921"/>
	<path class="st10" d="M-690.1,921"/>
	<path class="st11" d="M695.9,451.6"/>
	<path class="st10" d="M695.9,234"/>
	<path class="st10" d="M695.9,413.5"/>
	<path class="st12" d="M674.9,184"/>
	<path class="st12" d="M-690.1,184"/>
	<path class="st10" d="M695.9,423.9"/>
	<path class="st10" d="M695.9,417.2"/>
	<path class="st12" d="M674.9,325.8"/>
	<path class="st12" d="M-690.1,325.8"/>
	<path class="st12" d="M674.9,343.8"/>
	<path class="st12" d="M-690.1,343.8"/>
	<path class="st10" d="M675.9,963"/>
	<path class="st10" d="M-689.1,963"/>
	<path class="st10" d="M674.9,659.1"/>
	<path class="st10" d="M-690.1,659.1"/>
	<path class="st10" d="M674.9,780.1"/>
	<path class="st10" d="M-690.1,780.1"/>
	<line class="st13" x1="648.9" y1="0" x2="648.9" y2="741.5"/>
	<line class="st13" x1="656.9" y1="0" x2="656.9" y2="741.5"/>
	<line class="st10" x1="-690.1" y1="740.6" x2="674.9" y2="740.6"/>
	<line class="st12" x1="-690.1" y1="25.1" x2="674.9" y2="25.1"/>
	<line class="st12" x1="-690.1" y1="37.1" x2="674.9" y2="37.1"/>
	<line class="st12" x1="-690.1" y1="62.1" x2="674.9" y2="62.1"/>
	<line class="st13" x1="-663.1" y1="0" x2="-663.1" y2="741.5"/>
	<line class="st13" x1="-671.1" y1="0" x2="-671.1" y2="741.5"/>
	<line class="st12" x1="-690.1" y1="325.8" x2="674.9" y2="325.8"/>
	<line class="st12" x1="-690.1" y1="343.8" x2="674.9" y2="343.8"/>
	<line class="st12" x1="-690.1" y1="184" x2="674.9" y2="184"/>
	<line class="st12" x1="-690.1" y1="175" x2="674.9" y2="175"/>
	<line class="st12" x1="-690.1" y1="478" x2="674.9" y2="478"/>
	<line class="st12" x1="-690.1" y1="636.9" x2="674.9" y2="636.9"/>
	<line class="st12" x1="-690.1" y1="576.9" x2="674.9" y2="576.9"/>
	<line class="st12" x1="-690.1" y1="582.9" x2="674.9" y2="582.9"/>
	<line class="st12" x1="-690.1" y1="570.9" x2="674.9" y2="570.9"/>
	<line class="st12" x1="-690.1" y1="469.5" x2="674.9" y2="469.5"/>
</g>
</svg>
