<?xml version="1.0" encoding="utf-8"?>
<!-- Generator: Adobe Illustrator 24.0.1, SVG Export Plug-In . SVG Version: 6.00 Build 0)  -->
<svg version="1.1" id="Layer_1" xmlns="http://www.w3.org/2000/svg" xmlns:xlink="http://www.w3.org/1999/xlink" x="0px" y="0px"
	 viewBox="0 0 1058.8 1482.9" style="enable-background:new 0 0 1058.8 1482.9;" xml:space="preserve">
<style type="text/css">
	.st0{display:none;}
	.st1{display:inline;fill:none;stroke:#9D9D9C;stroke-width:0.25;stroke-miterlimit:10;}
	.st2{display:inline;fill:none;stroke:#FFFFFF;stroke-width:0.25;stroke-miterlimit:10;}
	.st3{display:inline;}
	.st4{fill:none;stroke:#9D9D9C;stroke-width:0.25;stroke-miterlimit:10;}
	.st5{fill:none;stroke:#FFFFFF;stroke-width:0.25;stroke-miterlimit:10;}
	.st6{fill:none;stroke:#000000;stroke-miterlimit:10;}
	.st7{fill:#FFFFFF;}
	.st8{fill:none;stroke:#FFFFFF;stroke-miterlimit:10;}
</style>
<g id="BGS">
</g>
<g id="FOOTER">
</g>
<g id="Homepage">
</g>
<g id="Services">
</g>
<g id="Work">
</g>
<g id="About_Us">
</g>
<g id="H_GUIDES" class="st0">
	<line class="st1" x1="-66.2" y1="1217" x2="1058.8" y2="1217"/>
	<path class="st1" d="M1058.8,1375.4"/>
	<path class="st1" d="M-66.2,1375.4"/>
	<path class="st1" d="M1058.8,1564.7"/>
	<path class="st1" d="M-66.2,1564.7"/>
	<line class="st1" x1="-66.2" y1="2232" x2="1058.8" y2="2232"/>
	<path class="st1" d="M1058.8,1447"/>
	<path class="st1" d="M-66.2,1447"/>
	<path class="st1" d="M1058.8,1534.7"/>
	<path class="st1" d="M-66.2,1534.7"/>
	<line class="st1" x1="-66.2" y1="1883.4" x2="1058.8" y2="1883.4"/>
	<path class="st1" d="M1058.8,1337"/>
	<path class="st1" d="M-66.2,1337"/>
	<path class="st1" d="M1058.8,1374"/>
	<path class="st1" d="M-66.2,1374"/>
	<path class="st1" d="M1058.8,1702.7"/>
	<path class="st1" d="M-66.2,1702.7"/>
	<line class="st1" x1="-66.2" y1="1739.7" x2="1058.8" y2="1739.7"/>
	<path class="st1" d="M1058.8,2051.4"/>
	<path class="st1" d="M-66.2,2051.4"/>
	<line class="st2" x1="-66.2" y1="2093.4" x2="1058.8" y2="2093.4"/>
	<path class="st1" d="M1058.8,2484.2"/>
	<path class="st1" d="M-66.2,2484.2"/>
	<path class="st1" d="M1058.8,1374"/>
	<path class="st1" d="M-66.2,1374"/>
	<line class="st2" x1="-66.2" y1="1474.9" x2="1058.8" y2="1474.9"/>
	<line class="st1" x1="-66.2" y1="156" x2="1058.8" y2="156"/>
	<line class="st1" x1="-66.2" y1="179" x2="1058.8" y2="179"/>
	<line class="st1" x1="-66.2" y1="168" x2="1058.8" y2="168"/>
	<line class="st1" x1="-66.2" y1="148" x2="1058.8" y2="148"/>
	<line class="st1" x1="-66.2" y1="187" x2="1058.8" y2="187"/>
	<line class="st2" x1="-66.2" y1="1596.7" x2="1058.8" y2="1596.7"/>
	<path class="st2" d="M1058.8,1702.7"/>
	<path class="st2" d="M-66.2,1702.7"/>
	<line class="st2" x1="-66.2" y1="334" x2="1058.8" y2="334"/>
	<line class="st2" x1="-66.2" y1="363" x2="1058.8" y2="363"/>
	<path class="st2" d="M1058.8,1624.7"/>
	<path class="st2" d="M-66.2,1624.7"/>
	<line class="st2" x1="-66.2" y1="2408.3" x2="1058.8" y2="2408.3"/>
	<line class="st2" x1="-66.2" y1="1119.2" x2="1058.8" y2="1119.2"/>
</g>
<g id="V_GUIDES" class="st0">
	<g class="st3">
		<line class="st4" x1="-66.2" y1="2436" x2="-66.2" y2="-0.5"/>
		<line class="st4" x1="0" y1="-0.5" x2="0" y2="2436"/>
		<line class="st5" x1="30" y1="2436" x2="30" y2="-0.5"/>
		<line class="st4" x1="96.2" y1="-0.5" x2="96.2" y2="2436"/>
		<line class="st4" x1="126.2" y1="2436" x2="126.2" y2="-0.5"/>
		<line class="st4" x1="192.5" y1="-0.5" x2="192.5" y2="2436"/>
		<line class="st4" x1="222.5" y1="2436" x2="222.5" y2="-0.5"/>
		<line class="st4" x1="288.8" y1="-0.5" x2="288.8" y2="2436"/>
		<line class="st4" x1="318.8" y1="2436" x2="318.8" y2="-0.5"/>
		<line class="st4" x1="385" y1="-0.5" x2="385" y2="2436"/>
		<line class="st4" x1="415" y1="2436" x2="415" y2="-0.5"/>
		<line class="st4" x1="481.2" y1="-0.5" x2="481.2" y2="2436"/>
		<line class="st4" x1="511.2" y1="2436" x2="511.2" y2="-0.5"/>
		<line class="st4" x1="577.5" y1="-0.5" x2="577.5" y2="2436"/>
		<line class="st4" x1="607.5" y1="2436" x2="607.5" y2="-0.5"/>
		<line class="st4" x1="673.8" y1="-0.5" x2="673.8" y2="2436"/>
		<line class="st4" x1="703.8" y1="2436" x2="703.8" y2="-0.5"/>
		<line class="st4" x1="770" y1="-0.5" x2="770" y2="2436"/>
		<line class="st4" x1="800" y1="2436" x2="800" y2="-0.5"/>
		<line class="st4" x1="866.2" y1="-0.5" x2="866.2" y2="2436"/>
		<line class="st4" x1="896.2" y1="2436" x2="896.2" y2="-0.5"/>
		<line class="st5" x1="962.5" y1="-0.5" x2="962.5" y2="2436"/>
		<line class="st4" x1="992.5" y1="2436" x2="992.5" y2="-0.5"/>
		<path class="st4" d="M1058.8-0.5"/>
	</g>
	<line class="st1" x1="-66.2" y1="1268.7" x2="1058.8" y2="1268.7"/>
	<line class="st1" x1="-66.2" y1="928.2" x2="1058.8" y2="928.2"/>
	<line class="st1" x1="-66.2" y1="334" x2="1058.8" y2="334"/>
	<line class="st1" x1="-66.2" y1="363" x2="1058.8" y2="363"/>
</g>
<g id="IPHONE" class="st0">
	<g class="st3">
		<path d="M765.3,97h-545c-26.8,0-48.5-21.7-48.5-48.5l0,0c0-26.8,21.7-48.5,48.5-48.5h545c26.8,0,48.5,21.7,48.5,48.5l0,0
			C813.8,75.3,792,97,765.3,97z"/>
		<path class="st6" d="M972.1,2436H20.4c-47.9,0-86.7-38.8-86.7-86.7V86.7C-66.2,38.8-27.4,0,20.4,0h951.7
			c47.9,0,86.7,38.8,86.7,86.7v2262.7C1058.8,2397.2,1019.9,2436,972.1,2436z"/>
		<rect x="171.8" y="0" width="642" height="48"/>
		<path d="M1058.8,2232v117.3c0,47.9-38.8,86.7-86.7,86.7H20.4c-47.9,0-86.7-38.8-86.7-86.7V2232H1058.8z"/>
	</g>
</g>
<g id="LOGO_BAR">
</g>
<g>
	<polygon class="st7" points="666.1,-2.8 666.1,948.4 648.1,930.2 648.1,-2.8 	"/>
	<polygon class="st7" points="648.2,943.9 1058.5,1354.2 1058.5,1328.8 648.1,918.5 	"/>
	<polygon class="st7" points="744.5,816.1 581.5,653.2 581.6,678.6 744.5,841.5 	"/>
	<polygon class="st7" points="834.1,771.6 59.7,-2.8 34.4,-2.7 834.1,797 	"/>
	<polygon class="st7" points="757.3,704.6 757.3,1378.3 739.3,1396.3 739.3,686.8 	"/>
	<polygon class="st7" points="786.5,837.3 703.7,918.5 703.6,893.2 786.7,810.1 	"/>
	<polygon class="st7" points="721.6,886.8 721.6,1283.7 703.6,1301.6 703.6,904 	"/>
	<path class="st7" d="M600.4,648.3c0,27.1-22,49.1-49.1,49.1s-49.1-22-49.1-49.1s22-49.1,49.1-49.1S600.4,621.2,600.4,648.3z
		 M522.2,648.3c0,16.1,13.1,29.1,29.1,29.1s29.1-13.1,29.1-29.1c0-16.1-13.1-29.1-29.1-29.1S522.2,632.2,522.2,648.3z"/>
	<path class="st7" d="M797.8,1424.9c0,27.1-22,49.1-49.1,49.1s-49.1-22-49.1-49.1s22-49.1,49.1-49.1S797.8,1397.8,797.8,1424.9z
		 M719.6,1424.9c0,16.1,13.1,29.1,29.1,29.1s29.1-13.1,29.1-29.1s-13.1-29.1-29.1-29.1S719.6,1408.8,719.6,1424.9z"/>
	<g>
		<polyline class="st8" points="786.6,513.2 786.6,905.4 363.4,1331.6 		"/>
		<circle class="st8" cx="786.7" cy="497.1" r="16.1"/>
		<circle class="st8" cx="354.8" cy="1341.7" r="13.3"/>
	</g>
</g>
</svg>
