<?xml version="1.0" encoding="utf-8"?>
<!-- Generator: Adobe Illustrator 24.0.1, SVG Export Plug-In . SVG Version: 6.00 Build 0)  -->
<svg version="1.1" xmlns="http://www.w3.org/2000/svg" xmlns:xlink="http://www.w3.org/1999/xlink" x="0px" y="0px"
	 viewBox="0 0 59.9 380.6" style="enable-background:new 0 0 59.9 380.6;" xml:space="preserve">
<style type="text/css">
	.st0{fill:#FFFFFF;}
	.st1{display:none;}
	.st2{display:inline;fill:none;stroke:#9D9D9C;stroke-width:0.25;stroke-miterlimit:10;}
	.st3{display:inline;fill:none;stroke:#FFFFFF;stroke-width:0.25;stroke-miterlimit:10;}
	.st4{display:inline;}
	.st5{fill:none;stroke:#000000;stroke-miterlimit:10;}
</style>
<g id="BGS">
	<g>
		<g>
			<path class="st0" d="M14.7,325.1l31.1,7.4v9.3l-20.8,5l20.8,5v9.3l-31.1,7.4v-8.2l22.5-4L14.7,351v-8.2l22.5-5.4l-22.5-4V325.1z"
				/>
			<path class="st0" d="M14.7,294.3h31.1v7.6h-13v11.8h13v7.5H14.7v-7.5h12v-11.8h-12V294.3z"/>
			<path class="st0" d="M14.7,281.6h31.1v7.5H14.7V281.6z"/>
			<path class="st0" d="M14.7,254.1h6v8.4h25.1v7.6H20.7v8.4h-6V254.1z"/>
			<path class="st0" d="M20.7,243.4h6.5v-10.5h5.7v10.5h6.9v-11.8h6v19.3H14.7v-19.3h6V243.4z"/>
			<path class="st0" d="M14.7,200.5h31.1v7.6h-13v11.8h13v7.5H14.7v-7.5h12V208h-12V200.5z"/>
			<path class="st0" d="M40.1,176.1v11.6l5.7,1.9v7.9l-30.9-11.4v-8.7l30.9-11.4v8L40.1,176.1z M34.4,178L23,181.9l11.4,3.9V178z"/>
			<path class="st0" d="M45.8,147.3L34.1,154v1.7h11.7v7.5H14.7v-12.8c0-2.5,0.4-4.5,1.3-6.2c0.9-1.7,2-3,3.5-3.8
				c1.5-0.8,3.2-1.3,5.1-1.3c2.3,0,4.2,0.6,5.8,1.9c1.6,1.2,2.7,3.1,3.3,5.4l12.2-7.4V147.3z M28.9,155.7V151c0-1.5-0.3-2.6-1-3.3
				c-0.7-0.7-1.6-1.1-2.9-1.1c-1.2,0-2.2,0.4-2.9,1.1c-0.7,0.7-1.1,1.8-1.1,3.3v4.7H28.9z"/>
			<path class="st0" d="M14.7,112.9h6v8.4h25.1v7.6H20.7v8.4h-6V112.9z"/>
		</g>
		<g>
			<path class="st0" d="M17.5,52.8c2.1-2.6,4.9-4.3,8.4-5v8c-1.4,0.6-2.6,1.5-3.4,2.7c-0.8,1.2-1.2,2.7-1.2,4.3c0,2.2,0.8,4,2.4,5.3
				c1.6,1.3,3.8,2,6.5,2c2.7,0,4.8-0.7,6.4-2c1.6-1.3,2.4-3.1,2.4-5.3c0-1.7-0.4-3.1-1.2-4.3c-0.8-1.2-1.9-2.1-3.3-2.7v-8
				c3.5,0.8,6.3,2.4,8.4,5c2.1,2.6,3.1,5.9,3.1,9.8c0,3-0.7,5.7-2,8c-1.3,2.3-3.2,4.1-5.6,5.3c-2.4,1.2-5.1,1.9-8.2,1.9
				c-3.1,0-5.8-0.6-8.2-1.9c-2.4-1.2-4.3-3-5.6-5.3c-1.3-2.3-2-4.9-2-8C14.4,58.6,15.5,55.4,17.5,52.8z"/>
			<path class="st0" d="M16.3,20.8c1.4-2.4,3.3-4.3,5.7-5.6c2.4-1.4,5.1-2.1,8.2-2.1c3,0,5.8,0.7,8.2,2.1c2.4,1.4,4.3,3.3,5.7,5.7
				c1.4,2.4,2,5,2,7.9c0,2.9-0.7,5.5-2,7.9c-1.4,2.4-3.3,4.3-5.7,5.7c-2.4,1.4-5.2,2.1-8.2,2.1c-3,0-5.8-0.7-8.2-2.1
				s-4.3-3.3-5.7-5.7c-1.4-2.4-2-5-2-7.9C14.2,25.8,14.9,23.2,16.3,20.8z M23.6,34.6c1.6,1.5,3.8,2.2,6.5,2.2c2.7,0,4.9-0.7,6.5-2.2
				c1.6-1.5,2.4-3.4,2.4-5.9c0-2.4-0.8-4.4-2.4-5.8c-1.6-1.5-3.8-2.2-6.5-2.2s-4.9,0.7-6.5,2.2c-1.6,1.5-2.4,3.4-2.4,5.9
				C21.2,31.2,22,33.2,23.6,34.6z"/>
		</g>
		<g>
			<path class="st0" d="M33.5,107.6h-6V83.2h6"/>
			<path class="st0" d="M18.4,98.4v-6h24.3v6"/>
		</g>
	</g>
</g>
<g id="FOOTER">
</g>
<g id="Homepage">
</g>
<g id="Services">
</g>
<g id="Work">
</g>
<g id="About_Us">
</g>
<g id="HEADER_GFX">
</g>
<g id="H_GUIDES" class="st1">
	<line class="st2" x1="-982.6" y1="-507.8" x2="142.4" y2="-507.8"/>
	<path class="st2" d="M142.4-349.4"/>
	<path class="st2" d="M-982.6-349.4"/>
	<path class="st2" d="M142.4-160"/>
	<path class="st2" d="M-982.6-160"/>
	<line class="st2" x1="-982.6" y1="507.2" x2="142.4" y2="507.2"/>
	<path class="st2" d="M142.4-277.8"/>
	<path class="st2" d="M-982.6-277.8"/>
	<path class="st2" d="M142.4-190"/>
	<path class="st2" d="M-982.6-190"/>
	<line class="st2" x1="-982.6" y1="158.6" x2="142.4" y2="158.6"/>
	<path class="st2" d="M142.4-387.8"/>
	<path class="st2" d="M-982.6-387.8"/>
	<path class="st2" d="M142.4-350.8"/>
	<path class="st2" d="M-982.6-350.8"/>
	<path class="st2" d="M142.4-22"/>
	<path class="st2" d="M-982.6-22"/>
	<line class="st2" x1="-982.6" y1="15" x2="142.4" y2="15"/>
	<path class="st2" d="M142.4,326.6"/>
	<path class="st2" d="M-982.6,326.6"/>
	<line class="st3" x1="-982.6" y1="368.6" x2="142.4" y2="368.6"/>
	<path class="st2" d="M142.4,759.4"/>
	<path class="st2" d="M-982.6,759.4"/>
	<path class="st2" d="M142.4-350.8"/>
	<path class="st2" d="M-982.6-350.8"/>
	<line class="st2" x1="-982.6" y1="-1568.8" x2="142.4" y2="-1568.8"/>
	<line class="st2" x1="-982.6" y1="-1545.8" x2="142.4" y2="-1545.8"/>
	<line class="st2" x1="-982.6" y1="-1556.8" x2="142.4" y2="-1556.8"/>
	<line class="st2" x1="-982.6" y1="-1576.8" x2="142.4" y2="-1576.8"/>
	<line class="st2" x1="-982.6" y1="-1537.8" x2="142.4" y2="-1537.8"/>
	<line class="st3" x1="-982.6" y1="-128.1" x2="142.4" y2="-128.1"/>
	<path class="st3" d="M142.4-22"/>
	<path class="st3" d="M-982.6-22"/>
	<line class="st3" x1="-982.6" y1="-1390.8" x2="142.4" y2="-1390.8"/>
	<line class="st3" x1="-982.6" y1="-1361.8" x2="142.4" y2="-1361.8"/>
	<path class="st3" d="M142.4-100.1"/>
	<path class="st3" d="M-982.6-100.1"/>
	<line class="st3" x1="-982.6" y1="683.6" x2="142.4" y2="683.6"/>
	<line class="st3" x1="-982.6" y1="-605.5" x2="142.4" y2="-605.5"/>
</g>
<g id="V_GUIDES" class="st1">
</g>
<g id="IPHONE" class="st1">
	<g class="st4">
		<path d="M-151.1-1627.8h-545c-26.8,0-48.5-21.7-48.5-48.5v0c0-26.8,21.7-48.5,48.5-48.5h545c26.8,0,48.5,21.7,48.5,48.5v0
			C-102.6-1649.5-124.4-1627.8-151.1-1627.8z"/>
		<path class="st5" d="M55.7,711.2H-896c-47.9,0-86.7-38.8-86.7-86.7v-2262.7c0-47.9,38.8-86.7,86.7-86.7H55.7
			c47.9,0,86.7,38.8,86.7,86.7V624.6C142.4,672.4,103.6,711.2,55.7,711.2z"/>
		<rect x="-744.6" y="-1724.8" width="642" height="48"/>
		<path d="M142.4,507.2v117.3c0,47.9-38.8,86.7-86.7,86.7H-896c-47.9,0-86.7-38.8-86.7-86.7V507.2H142.4z"/>
	</g>
</g>
<g id="LOGO_BAR">
</g>
</svg>
